<svg width="123" height="43" viewBox="0 0 123 43" fill="none" xmlns="http://www.w3.org/2000/svg">
<path d="M14.7908 4.54297H10.572V0.861328H22.6716V1.75977L17.9451 9.52344H22.6716V13H10.113V12.3359L14.7908 4.54297ZM33.1306 4.31836C33.0004 4.25326 32.8311 4.2207 32.6228 4.2207C32.421 4.2207 32.1964 4.28255 31.949 4.40625C31.7016 4.52344 31.4574 4.6862 31.2166 4.89453C30.7087 5.33724 30.2823 5.87435 29.9373 6.50586C29.5922 7.13737 29.4197 7.72005 29.4197 8.25391C29.4197 8.78125 29.6215 9.13607 30.0252 9.31836C30.1684 9.38346 30.3442 9.41602 30.5525 9.41602C30.7608 9.41602 30.9789 9.35417 31.2068 9.23047C31.4347 9.10026 31.6625 8.92773 31.8904 8.71289C32.3656 8.26367 32.7823 7.72005 33.1404 7.08203C33.4985 6.4375 33.6775 5.86133 33.6775 5.35352C33.6775 4.8457 33.4952 4.50065 33.1306 4.31836ZM31.2361 13.3613C29.3741 13.3613 27.7693 12.7721 26.4216 11.5938C24.9828 10.3438 24.2634 8.77148 24.2634 6.87695C24.2634 4.97591 24.9373 3.42318 26.2849 2.21875C27.6326 1.00781 29.296 0.402344 31.2752 0.402344C33.2543 0.402344 34.9177 0.994792 36.2654 2.17969C37.613 3.35807 38.2901 4.93685 38.2966 6.91602C38.3031 8.18555 37.9809 9.30859 37.3298 10.2852C36.6788 11.2617 35.8097 12.0169 34.7224 12.5508C33.6352 13.0846 32.4731 13.3548 31.2361 13.3613ZM48.6384 4.31836C48.5082 4.25326 48.339 4.2207 48.1306 4.2207C47.9288 4.2207 47.7042 4.28255 47.4568 4.40625C47.2094 4.52344 46.9653 4.6862 46.7244 4.89453C46.2166 5.33724 45.7901 5.87435 45.4451 6.50586C45.1 7.13737 44.9275 7.72005 44.9275 8.25391C44.9275 8.78125 45.1293 9.13607 45.533 9.31836C45.6762 9.38346 45.852 9.41602 46.0603 9.41602C46.2686 9.41602 46.4867 9.35417 46.7146 9.23047C46.9425 9.10026 47.1703 8.92773 47.3982 8.71289C47.8735 8.26367 48.2901 7.72005 48.6482 7.08203C49.0063 6.4375 49.1853 5.86133 49.1853 5.35352C49.1853 4.8457 49.003 4.50065 48.6384 4.31836ZM46.7439 13.3613C44.8819 13.3613 43.2771 12.7721 41.9294 11.5938C40.4906 10.3438 39.7712 8.77148 39.7712 6.87695C39.7712 4.97591 40.4451 3.42318 41.7927 2.21875C43.1404 1.00781 44.8038 0.402344 46.783 0.402344C48.7621 0.402344 50.4255 0.994792 51.7732 2.17969C53.1209 3.35807 53.7979 4.93685 53.8044 6.91602C53.811 8.18555 53.4887 9.30859 52.8377 10.2852C52.1866 11.2617 51.3175 12.0169 50.2302 12.5508C49.143 13.0846 47.9809 13.3548 46.7439 13.3613Z" fill="#4E4B59"/>
<path fill-rule="evenodd" clip-rule="evenodd" d="M99.6293 38.1066L99.6281 38.1091C98.8995 39.5889 96.1481 41.7127 90.8178 41.7127C84.3411 41.7127 81.9472 39.7069 81.2759 38.0753C80.9571 37.3005 80.9055 35.9093 81.1742 34.4022C81.4216 33.0151 81.9545 31.445 82.8958 30.0329C82.5837 29.7455 82.2992 29.3792 82.1078 28.9674C81.8163 28.3399 81.723 27.559 82.1538 26.7962C82.6381 25.9386 83.2248 25.306 83.96 24.9089C84.699 24.5098 85.5257 24.3822 86.4222 24.4341C87.3367 24.487 87.8883 25.0522 88.1894 25.6133C88.3554 25.9228 88.463 26.2584 88.5294 26.5735C89.4322 26.4047 90.25 26.3593 90.8315 26.3818C91.4549 26.3823 92.0325 26.4192 92.5664 26.4856C92.6405 26.1674 92.7578 25.8306 92.937 25.5237C93.2468 24.9932 93.7903 24.4841 94.6541 24.4341C95.5505 24.3822 96.3773 24.5098 97.1162 24.9089C97.8514 25.306 98.4382 25.9386 98.9224 26.7962C99.3304 27.5185 99.2687 28.259 99.0121 28.8688C98.8379 29.2828 98.569 29.6522 98.2704 29.947C100.595 33.7065 100.232 36.8506 99.6305 38.1041L99.6293 38.1066ZM97.4728 29.8395C98.2119 29.3132 98.9787 28.1487 98.3649 27.0618C97.4694 25.4762 96.3054 24.9166 94.6936 25.0099C93.7923 25.062 93.3635 25.8463 93.187 26.5792C93.139 26.7787 93.1096 26.9744 93.0945 27.1505C92.8953 27.1144 92.6881 27.0828 92.4728 27.0562C91.9668 26.9936 91.416 26.9587 90.8178 26.9587C90.2781 26.9366 89.4886 26.9795 88.6113 27.147C88.4084 27.1857 88.2009 27.2311 87.9907 27.2839C87.9823 27.1109 87.9595 26.9117 87.9172 26.7047C87.7604 25.9387 87.3357 25.065 86.3827 25.0099C84.7709 24.9166 83.6068 25.4762 82.7114 27.0618C82.0714 28.1951 82.9324 29.4128 83.6979 29.9034C83.7066 29.9089 83.7153 29.9144 83.724 29.9199C83.696 29.9573 83.6683 29.9949 83.641 30.0327C81.5737 32.8864 81.3487 36.6203 81.8634 37.8714C82.4007 39.1771 84.4602 41.1358 90.8178 41.1358C95.9834 41.1358 98.4588 39.0839 99.0558 37.8714C99.5849 36.7691 99.9924 33.6404 97.4728 29.8395Z" fill="white"/>
<path d="M94.6935 25.0099C93.4041 25.0845 93.0817 26.6576 93.0817 27.4349C94.9442 27.4349 96.5441 29.176 97.1112 30.0465C97.9171 29.7045 99.0811 28.3303 98.3648 27.0618C97.4694 25.4762 96.3053 24.9166 94.6935 25.0099Z" fill="white"/>
<path d="M94.4415 26.3156C94.0117 26.838 93.964 27.6525 93.9938 27.9945L96.0533 29.1138C97.6651 28.6474 97.5756 27.6214 97.2174 27.0618C96.8592 26.5022 94.9788 25.6628 94.4415 26.3156Z" fill="#7A7786"/>
<g style="mix-blend-mode:multiply" opacity="0.2">
<mask id="mask0_5526_593" style="mask-type:alpha" maskUnits="userSpaceOnUse" x="93" y="25" width="6" height="6">
<path d="M94.6935 25.0099C93.4041 25.0845 93.0817 26.6576 93.0817 27.4349C94.9442 27.4349 96.5441 29.176 97.1112 30.0465C97.9171 29.7045 99.0811 28.3303 98.3648 27.0618C97.4694 25.4762 96.3053 24.9166 94.6935 25.0099Z" fill="#9A4F01"/>
</mask>
<g mask="url(#mask0_5526_593)">
<path d="M98.1591 29.2565C97.0389 27.8023 95.5612 27.0059 93.6509 26.9645C93.2173 26.9551 92.4282 26.992 92.1482 27.1828C93.4288 27.7095 96.6599 29.4454 97.4388 31.5199C97.9959 30.9671 98.7152 29.9784 98.1591 29.2565Z" fill="white"/>
</g>
</g>
<path d="M86.3827 25.0099C87.6721 25.0845 87.9944 26.6576 87.9944 27.4349C86.1319 27.4349 84.5321 29.176 83.965 30.0465C83.1591 29.7045 81.995 28.3303 82.7114 27.0618C83.6068 25.4762 84.7709 24.9166 86.3827 25.0099Z" fill="white"/>
<path d="M86.6346 26.3156C87.0644 26.838 87.1122 27.6525 87.0823 27.9945L85.0228 29.1138C83.4111 28.6474 83.5006 27.6214 83.8588 27.0618C84.217 26.5022 86.0974 25.6628 86.6346 26.3156Z" fill="#7A7786"/>
<g style="mix-blend-mode:multiply" opacity="0.2">
<mask id="mask1_5526_593" style="mask-type:alpha" maskUnits="userSpaceOnUse" x="82" y="25" width="6" height="6">
<path d="M86.3827 25.0099C87.6721 25.0845 87.9944 26.6576 87.9944 27.4349C86.1319 27.4349 84.5321 29.176 83.965 30.0465C83.1591 29.7045 81.995 28.3303 82.7114 27.0618C83.6068 25.4762 84.7709 24.9166 86.3827 25.0099Z" fill="#9A4F01"/>
</mask>
<g mask="url(#mask1_5526_593)">
<path d="M82.8099 29.6931C83.7596 28.0366 86.0517 27.006 87.9621 26.9646C88.3957 26.9552 88.3261 27.1012 88.6061 27.292C87.3255 27.8187 84.4164 29.4455 83.6375 31.52C83.0804 30.9671 82.3556 30.4853 82.8099 29.6931Z" fill="white"/>
</g>
</g>
<path d="M83.923 29.6636C85.7855 27.3505 89.2956 26.8965 90.8178 26.9587C95.1159 26.9587 96.9665 28.762 97.3545 29.6636C100.005 33.5436 99.5931 36.7521 99.0558 37.8714C98.4589 39.0839 95.9835 41.1359 90.8178 41.1359C84.4602 41.1359 82.4007 39.1772 81.8635 37.8714C81.3262 36.5656 81.5949 32.555 83.923 29.6636Z" fill="url(#paint0_linear_5526_593)"/>
<ellipse cx="90.4343" cy="37.7252" rx="3.55466" ry="2.57127" fill="url(#paint1_radial_5526_593)"/>
<ellipse cx="90.4305" cy="36.9083" rx="0.946902" ry="0.481405" fill="white"/>
<path d="M84.4578 30.7425C85.9736 29.2696 87.4003 28.9231 90.6102 28.9231C94.1767 28.9231 96.0195 30.136 96.495 30.7425C99.0808 34.0347 97.9216 36.9804 95.5142 36.9804C93.1068 36.9804 92.7501 35.0744 90.6102 35.0744C88.4702 35.0744 88.5594 36.6339 85.4386 36.9804C82.3179 37.327 82.1396 32.9951 84.4578 30.7425Z" fill="#7A7786"/>
<path d="M88.39 34.047C88.1737 35.1873 86.9632 36.055 85.8414 35.8755C84.7197 35.6959 84.1115 34.5371 84.3279 33.3968C84.5442 32.2565 85.629 31.4776 86.7507 31.6571C87.8724 31.8367 88.6064 32.9067 88.39 34.047Z" fill="#4E4B59"/>
<ellipse rx="2.0015" ry="2.3599" transform="matrix(0.993859 0.110657 -0.130842 0.991403 86.5115 33.0291)" fill="white"/>
<ellipse rx="1.34563" ry="1.69235" transform="matrix(0.993859 0.110657 -0.130842 0.991403 86.6948 32.7739)" fill="white"/>
<path d="M92.5232 34.047C92.7395 35.1873 93.95 36.055 95.0718 35.8755C96.1935 35.6959 96.8017 34.5371 96.5854 33.3968C96.369 32.2565 95.2843 31.4776 94.1625 31.6571C93.0408 31.8367 92.3068 32.9067 92.5232 34.047Z" fill="#4E4B59"/>
<ellipse rx="2.0015" ry="2.3599" transform="matrix(-0.993859 0.110657 0.130842 0.991403 94.4017 33.0291)" fill="white"/>
<ellipse rx="1.34563" ry="1.69235" transform="matrix(-0.993859 0.110657 0.130843 0.991403 94.2184 32.7738)" fill="white"/>
<g style="mix-blend-mode:multiply" opacity="0.1">
<mask id="mask2_5526_593" style="mask-type:alpha" maskUnits="userSpaceOnUse" x="81" y="26" width="19" height="16">
<path d="M83.923 29.6636C85.7855 27.3505 89.2956 26.8965 90.8178 26.9587C95.1159 26.9587 96.9665 28.762 97.3545 29.6636C100.005 33.5436 99.5931 36.7521 99.0558 37.8714C98.4589 39.0839 95.9835 41.1359 90.8178 41.1359C84.4602 41.1359 82.4007 39.1772 81.8635 37.8714C81.3262 36.5656 81.5949 32.555 83.923 29.6636Z" fill="#B66919"/>
</mask>
<g mask="url(#mask2_5526_593)">
<path d="M92.3944 38.7183C84.2154 39.3846 78.4645 35.7845 76.6115 33.9011C78.704 39.1555 82.3998 44.0532 92.7858 43.2071C101.095 42.5302 104.83 35.1433 105.66 31.5345C104.646 33.6515 100.573 38.0519 92.3944 38.7183Z" fill="#4E4B59"/>
</g>
</g>
<path d="M18.441 20.7256L20.7643 27.9492L25.8297 21.1572C25.999 20.9287 26.1259 20.7806 26.2106 20.7129C26.2952 20.6452 26.4221 20.6113 26.5914 20.6113C26.7607 20.6113 26.9765 20.7933 27.2389 21.1572L31.9615 27.873L34.2467 20.7256H41.5084L34.8815 40.4795C34.5937 41.3258 34.107 41.749 33.4215 41.749C32.7359 41.749 32.1223 41.3597 31.5807 40.5811L25.9059 32.3926L19.7994 40.6064C19.2493 41.3343 18.6357 41.6982 17.9586 41.6982C17.2815 41.6982 16.7864 41.2751 16.4733 40.4287L9.33849 20.7256H18.441ZM47.8053 17.9072C49.0494 17.9072 49.9719 18.1696 50.5729 18.6943C51.1738 19.2106 51.47 19.8708 51.4615 20.6748C51.4615 21.4788 51.0764 22.2194 50.3063 22.8965C49.5445 23.5736 48.5247 23.9121 47.2467 23.9121C45.4524 23.9121 44.3352 23.3704 43.8951 22.2871C43.7682 21.9824 43.7047 21.6439 43.7047 21.2715C43.7047 20.8991 43.7936 20.5098 43.9713 20.1035C44.149 19.6973 44.4156 19.3333 44.7711 19.0117C45.5582 18.2754 46.5696 17.9072 47.8053 17.9072ZM51.2457 41H43.8951V25.2197H51.2457V41ZM61.5543 41H54.3561V19.6338H61.5543V41ZM76.3063 29.9551C74.4274 29.515 73.0605 29.2949 72.2057 29.2949C71.9602 29.2949 71.7698 29.3499 71.6344 29.46C71.5074 29.57 71.444 29.6927 71.444 29.8281C71.444 30.1074 71.791 30.391 72.485 30.6787C73.1874 30.958 73.8307 31.2331 74.4147 31.5039C74.9986 31.7747 75.5022 32.1048 75.9254 32.4941C76.8395 33.3405 77.2965 34.6016 77.2965 36.2773C77.2965 37.9447 76.6914 39.2269 75.4811 40.124C74.2708 41.0212 72.6331 41.4697 70.568 41.4697C68.5029 41.4697 66.8525 41.2793 65.6168 40.8984C65.0751 40.7376 64.6604 40.5472 64.3727 40.3271V35.6172C64.4912 35.6257 64.6985 35.6807 64.9947 35.7822C65.291 35.8838 65.7818 36.0446 66.4674 36.2646C67.1529 36.4762 67.775 36.582 68.3336 36.582C68.9007 36.582 69.1842 36.3747 69.1842 35.96C69.1842 35.6383 68.9303 35.3252 68.4225 35.0205C68.194 34.8851 67.9358 34.7454 67.6481 34.6016C66.4547 34.0176 65.5999 33.3447 65.0836 32.583C64.5758 31.8128 64.3219 30.9115 64.3219 29.8789C64.3219 28.0423 65.0667 26.6712 66.5563 25.7656C67.8089 25.0039 69.4466 24.623 71.4693 24.623C72.8828 24.623 74.3004 24.7627 75.7223 25.042C76.027 25.1012 76.2216 25.1436 76.3063 25.1689V29.9551Z" fill="white"/>
<path d="M111.739 29.5107C111.062 29.5107 110.724 30.0566 110.724 31.1484V41H103.183V25.2197H107.347L109.162 27.6826C109.839 26.7432 110.774 25.9984 111.968 25.4482C113.17 24.8981 114.291 24.623 115.332 24.623C117.245 24.623 118.76 25.1309 119.877 26.1465C121.003 27.1621 121.565 28.5247 121.565 30.2344V41H113.974V33.3828C113.974 30.8014 113.229 29.5107 111.739 29.5107Z" fill="white"/>
<defs>
<linearGradient id="paint0_linear_5526_593" x1="90.6455" y1="26.9646" x2="90.5375" y2="41.1358" gradientUnits="userSpaceOnUse">
<stop stop-color="white"/>
<stop offset="0.885417" stop-color="#C4C4C4"/>
</linearGradient>
<radialGradient id="paint1_radial_5526_593" cx="0" cy="0" r="1" gradientUnits="userSpaceOnUse" gradientTransform="translate(90.4343 37.7252) rotate(90) scale(2.15987 2.91285)">
<stop offset="0.598958" stop-color="white"/>
<stop offset="0.838542" stop-color="#4E2219" stop-opacity="0"/>
</radialGradient>
</defs>
</svg>
